HIERARCHY
ROOT Hips
{
	OFFSET 4.076200 -17.275196 43.303001
	CHANNELS 6 Xposition Yposition Zposition Zrotation Xrotation Yrotation
	JOINT Chest
	{
		OFFSET -0.689800 0.941999 5.341000
		CHANNELS 6 Xposition Yposition Zposition Zrotation Xrotation Yrotation
		JOINT Chest2
		{
			OFFSET 0.000000 0.000000 4.278900
			CHANNELS 6 Xposition Yposition Zposition Zrotation Xrotation Yrotation
			JOINT Neck
			{
				OFFSET 0.000000 0.000000 9.970299
				CHANNELS 6 Xposition Yposition Zposition Zrotation Xrotation Yrotation
				JOINT Head
				{
					OFFSET 0.000000 0.000002 2.173901
					CHANNELS 6 Xposition Yposition Zposition Zrotation Xrotation Yrotation
					End Site
					{
						OFFSET 0.000000 0.000000 6.488197
					}
				}
			}
			JOINT LeftCollar
			{
				OFFSET 2.472300 -0.285801 5.433899
				CHANNELS 6 Xposition Yposition Zposition Zrotation Xrotation Yrotation
				JOINT LeftShoulder
				{
					OFFSET 5.327700 0.000000 0.000000
					CHANNELS 6 Xposition Yposition Zposition Zrotation Xrotation Yrotation
					JOINT LeftElbow
					{
						OFFSET 0.000000 0.000000 -10.713001
						CHANNELS 6 Xposition Yposition Zposition Zrotation Xrotation Yrotation
						JOINT LeftWrist
						{
							OFFSET 0.000000 -0.000002 -13.396900
							CHANNELS 6 Xposition Yposition Zposition Zrotation Xrotation Yrotation
							End Site
							{
								OFFSET 0.000000 0.000000 -2.173901
							}
						}
					}
				}
			}
			JOINT RightCollar
			{
				OFFSET -2.589400 -1.358400 6.105000
				CHANNELS 6 Xposition Yposition Zposition Zrotation Xrotation Yrotation
				JOINT RightShoulder
				{
					OFFSET -4.580200 0.000000 0.000000
					CHANNELS 6 Xposition Yposition Zposition Zrotation Xrotation Yrotation
					JOINT RightElbow
					{
						OFFSET 0.000000 0.000000 -10.761101
						CHANNELS 6 Xposition Yposition Zposition Zrotation Xrotation Yrotation
						JOINT RightWrist
						{
							OFFSET 0.000000 -0.000002 -13.028500
							CHANNELS 6 Xposition Yposition Zposition Zrotation Xrotation Yrotation
							End Site
							{
								OFFSET 0.000000 0.000000 -2.173901
							}
						}
					}
				}
			}
		}
	}
	JOINT LeftHip
	{
		OFFSET 2.532500 0.486900 -2.489700
		CHANNELS 6 Xposition Yposition Zposition Zrotation Xrotation Yrotation
		JOINT LeftKnee
		{
			OFFSET 0.000000 -0.000002 -18.199398
			CHANNELS 6 Xposition Yposition Zposition Zrotation Xrotation Yrotation
			JOINT LeftAnkle
			{
				OFFSET 0.000000 -0.000002 -16.083900
				CHANNELS 6 Xposition Yposition Zposition Zrotation Xrotation Yrotation
				End Site
				{
					OFFSET 0.000000 -8.641399 0.000000
				}
			}
		}
	}
	JOINT RightHip
	{
		OFFSET -2.112700 -0.049900 -2.711102
		CHANNELS 6 Xposition Yposition Zposition Zrotation Xrotation Yrotation
		JOINT RightKnee
		{
			OFFSET 0.000000 -0.000002 -19.127298
			CHANNELS 6 Xposition Yposition Zposition Zrotation Xrotation Yrotation
			JOINT RightAnkle
			{
				OFFSET 0.000000 -0.000002 -14.874901
				CHANNELS 6 Xposition Yposition Zposition Zrotation Xrotation Yrotation
				End Site
				{
					OFFSET 0.000000 -8.198299 0.000000
				}
			}
		}
	}
}
MOTION
Frames: 7
Frame Time: 0.041667
2.911300 44.332703 43.400398 -172.392513 7.641193 -8.003132 -0.689802 0.942000 5.341000 31.010534 -12.949026 7.591442 -0.000002 -0.000002 4.278896 -9.908444 4.165945 0.297671 -0.000002 -0.000002 9.970298 54.162113 11.443451 -5.856314 0.000004 0.000000 2.173899 3.648023 -0.776108 6.030529 2.472298 -0.285800 5.433901 -0.922914 -2.007348 2.804577 5.327701 0.000003 -0.000009 1329.053616 -130.152765 1276.906379 -0.000000 0.000004 -10.712996 251.198812 -162.530785 245.169012 -0.000005 0.000002 -13.396895 164.812615 -528.949138 124.750659 -2.589402 -1.358403 6.104999 34.553999 19.931144 28.704184 -4.580197 0.000001 -0.000007 -624.610090 -60.434231 -632.878444 -0.000001 -0.000005 -10.761097 142.255478 226.357674 140.167667 -0.000007 0.000008 -13.028500 410.749736 -171.588053 849.608652 2.532498 0.486901 -2.489708 -708.031015 -12.365159 7.945368 -0.000003 -0.000001 -18.199402 929.440668 514.396081 -178.768413 0.000004 -0.000000 -16.083900 -223.770671 136.874928 156.507310 -2.112703 -0.049905 -2.711103 -161.633285 -10.402014 -54.500911 -0.000002 -0.000007 -19.127304 1098.865532 22.680743 -1059.442445 -0.000001 -0.000004 -14.874906 369.195002 92.409748 79.457059
2.812600 44.324703 43.379501 -172.376284 7.755237 -8.089369 -0.689801 0.941999 5.341001 31.192958 -13.026396 7.645729 -0.000000 -0.000006 4.278906 -10.105638 4.173487 0.288906 0.000003 -0.000001 9.970303 54.330958 11.554710 -5.863203 0.000003 0.000001 2.173884 3.657264 -0.747673 6.037971 2.472302 -0.285802 5.433901 -0.432956 -2.448611 2.648585 5.327702 -0.000002 -0.000008 1328.725002 -130.664278 1276.795129 -0.000000 0.000003 -10.713007 250.839681 -162.526318 245.152756 -0.000001 -0.000003 -13.396896 164.973493 -528.914604 124.426553 -2.589399 -1.358397 6.104996 34.185469 19.164643 29.377043 -4.580197 0.000005 0.000005 -624.344040 -60.706837 -633.397483 0.000007 0.000009 -10.761100 142.173092 226.433940 140.109583 0.000002 0.000001 -13.028498 410.286704 -170.914201 851.502308 2.532500 0.486896 -2.489702 -707.842502 -12.422385 8.069331 -0.000003 -0.000004 -18.199404 929.708739 514.311769 -178.704646 -0.000000 -0.000004 -16.083900 -224.270464 136.727396 156.322977 -2.112706 -0.049904 -2.711102 -160.606871 -11.272428 -54.572265 -0.000002 -0.000001 -19.127300 1098.720622 22.677317 -1059.354909 0.000001 -0.000007 -14.874899 365.061371 92.523402 83.284185
2.722700 44.314903 43.355999 -172.244202 7.841403 -8.191419 -0.689800 0.941998 5.340995 30.965803 -13.140747 7.637589 0.000001 -0.000005 4.278905 -9.973051 4.171022 0.292379 0.000001 0.000000 9.970296 54.405698 11.652060 -5.828982 -0.000004 0.000001 2.173892 3.628270 -0.723702 5.935960 2.472299 -0.285800 5.433898 -0.309444 -2.577410 2.728982 5.327700 -0.000004 -0.000001 1328.988374 -130.785364 1277.074238 -0.000001 0.000007 -10.713001 250.394325 -162.323079 245.030823 0.000007 -0.000002 -13.396894 165.143333 -528.978808 123.972332 -2.589399 -1.358398 6.104999 34.021155 19.111002 29.381609 -4.580204 0.000002 0.000002 -623.738339 -60.148217 -632.770363 0.000003 -0.000004 -10.761106 141.681824 226.370228 139.899404 -0.000001 0.000004 -13.028499 410.392763 -170.513391 852.603662 2.532499 0.486894 -2.489709 -707.906760 -12.437474 8.151487 -0.000001 -0.000003 -18.199402 929.960199 514.308108 -178.612343 -0.000000 -0.000000 -16.083900 -224.516405 136.679366 156.150501 -2.112698 -0.049902 -2.711108 -160.489993 -11.341096 -54.779333 -0.000008 -0.000004 -19.127302 1099.224636 22.779215 -1059.354690 -0.000005 0.000001 -14.874896 367.560538 92.724770 80.845589
2.632002 44.317406 43.338902 -172.172144 7.790533 -8.253434 -0.689800 0.941998 5.341000 30.963822 -13.132599 7.610444 -0.000001 -0.000006 4.278899 -9.973844 4.191949 0.295816 0.000001 -0.000001 9.970288 54.403604 11.687592 -5.798014 0.000006 0.000002 2.173891 3.607808 -0.720637 5.975754 2.472301 -0.285800 5.433894 -0.252834 -2.548873 2.714813 5.327700 0.000003 -0.000006 1328.479881 -130.738195 1276.920039 -0.000003 -0.000000 -10.713005 250.636278 -162.110346 245.014349 -0.000009 -0.000001 -13.396901 165.274459 -529.045635 123.301949 -2.589396 -1.358397 6.104992 33.848553 18.936920 29.424206 -4.580190 -0.000001 0.000000 -623.301535 -59.815136 -632.425028 -0.000003 -0.000000 -10.761103 141.326053 226.103290 139.902737 -0.000000 -0.000003 -13.028499 410.468223 -170.795342 853.006917 2.532500 0.486894 -2.489701 -707.853157 -12.318653 8.270336 0.000001 -0.000001 -18.199400 930.060739 514.285213 -178.711968 -0.000001 -0.000006 -16.083899 -225.530183 136.923955 157.955187 -2.112704 -0.049903 -2.711099 -160.955593 -10.979563 -54.979970 -0.000004 0.000003 -19.127302 1099.627890 22.706013 -1059.390645 -0.000001 -0.000004 -14.874899 373.689294 93.115115 75.290767
2.550103 44.314003 43.328999 -171.937950 7.760855 -8.400390 -0.689800 0.941999 5.340993 30.726477 -13.119784 7.624476 0.000001 -0.000003 4.278896 -9.874125 4.300238 0.316608 0.000003 -0.000002 9.970304 54.377004 11.667542 -5.686307 -0.000001 0.000002 2.173896 3.587601 -0.619961 5.915655 2.472301 -0.285805 5.433907 -0.428572 -2.469369 2.861988 5.327702 0.000000 0.000004 1328.441741 -130.527934 1277.003204 -0.000001 -0.000002 -10.713005 250.891945 -161.925644 245.060740 -0.000003 -0.000006 -13.396892 165.112774 -529.049787 122.866675 -2.589404 -1.358400 6.105003 33.816560 19.011724 29.226755 -4.580203 0.000005 0.000001 -622.918498 -59.666408 -631.778018 -0.000002 0.000011 -10.761100 141.764046 226.108795 140.130483 0.000000 0.000000 -13.028498 410.308615 -171.005698 853.330066 2.532499 0.486901 -2.489707 -707.973150 -12.218426 8.417998 -0.000001 0.000001 -18.199398 929.587216 514.201612 -178.548522 -0.000001 -0.000002 -16.083899 -225.043859 137.089014 157.894753 -2.112701 -0.049897 -2.711107 -161.483758 -10.698317 -55.249407 -0.000006 0.000002 -19.127300 1099.968416 22.642574 -1059.376766 -0.000001 -0.000001 -14.874900 377.468820 93.600988 72.037233
2.470701 44.307095 43.321800 -171.710013 7.886042 -8.477242 -0.689802 0.942003 5.340999 30.381832 -13.357587 7.640142 -0.000001 -0.000006 4.278899 -9.610436 4.216440 0.312440 0.000002 0.000001 9.970301 54.313869 11.864979 -5.807766 -0.000002 0.000002 2.173895 3.549087 -0.591863 5.942653 2.472299 -0.285800 5.433896 -0.551766 -2.318413 2.993714 5.327703 -0.000002 -0.000006 1328.679431 -130.544764 1277.226141 0.000003 -0.000001 -10.713003 250.793563 -161.793221 245.049347 0.000002 -0.000002 -13.396892 165.162580 -529.133280 122.575108 -2.589398 -1.358398 6.105002 33.826160 19.417847 28.888859 -4.580205 0.000002 0.000003 -622.511746 -59.436388 -630.978722 0.000001 -0.000001 -10.761101 141.913641 226.007230 140.097371 0.000004 0.000004 -13.028494 410.651108 -171.197394 853.645348 2.532498 0.486901 -2.489698 -708.008557 -12.298117 8.504616 0.000000 0.000002 -18.199404 929.058833 514.079324 -178.258252 -0.000005 -0.000008 -16.083899 -224.217010 137.141511 157.352423 -2.112703 -0.049899 -2.711104 -161.597399 -10.610246 -55.383600 -0.000004 0.000003 -19.127300 1100.592203 22.771176 -1059.431407 0.000000 -0.000005 -14.874896 377.988461 93.855747 71.574194
2.394401 44.306805 43.312302 -171.588463 7.980051 -8.514854 -0.689799 0.941998 5.340989 30.129901 -13.567914 7.624072 0.000002 0.000003 4.278902 -9.309815 4.252231 0.328888 0.000000 -0.000007 9.970304 54.235503 11.852318 -5.793224 0.000002 -0.000001 2.173898 3.500489 -0.562042 5.905818 2.472296 -0.285806 5.433905 -0.948751 -2.060017 3.271624 5.327706 0.000003 -0.000006 1328.647739 -130.114830 1277.168658 0.000001 0.000002 -10.713002 251.168350 -161.495602 244.975936 -0.000007 -0.000001 -13.396895 165.542871 -529.229394 122.561242 -2.589399 -1.358405 6.105002 34.015025 20.033218 28.300334 -4.580195 0.000003 0.000002 -622.231108 -58.678503 -629.923704 -0.000000 -0.000005 -10.761101 141.772748 226.013897 140.084065 -0.000007 0.000003 -13.028494 411.021468 -171.698661 853.502296 2.532500 0.486904 -2.489714 -707.976319 -12.332756 8.602651 0.000001 -0.000006 -18.199398 928.822016 514.044518 -178.160539 -0.000006 -0.000002 -16.083897 -223.775507 137.180005 157.063902 -2.112699 -0.049901 -2.711107 -161.888720 -10.333618 -55.541131 -0.000001 -0.000000 -19.127300 1101.208123 22.885435 -1059.495666 0.000001 -0.000001 -14.874897 379.314583 94.271849 70.545308
